<svg xmlns="http://www.w3.org/2000/svg" width="720" height="945" viewBox="0 0 720 945"><defs><style>.a{fill:#8bfea1;}</style></defs><path class="a" d="M92.5,932.5v-35h-70V92.5h70v-70h580v70h70v805h-70v70H92.5Zm576.25-1.875V897.5h-7.5v58.75H103.75V897.5h-7.5v66.25h572.5ZM657.5,925V897.5H650V945H115V897.5h-7.5v55h550Zm-11.25-5.625V897.5h-7.5v36.25H126.25V897.5h-7.5v43.75h527.5ZM635,913.75V897.5h-7.5v25h-490v-25H130V930H635ZM623.75,895V871.25H635V860h11.25V848.75h47.5V141.25h-47.5V130H635V118.75H623.75V71.25H141.25v47.5H130V130H118.75v11.25H71.25v707.5h47.5V860H130v11.25h11.25v47.5h482.5ZM92.5,890v-3.75H33.75V103.75H92.5v-7.5H26.25v797.5H92.5Zm11.25,0v-3.75h-7.5v7.5h7.5ZM115,890v-3.75h-7.5v7.5H115Zm11.25,0v-3.75h-7.5v7.5h7.5Zm11.25,0v-3.75H130v7.5h7.5ZM635,890v-3.75h-7.5v7.5H635Zm11.25,0v-3.75h-7.5v7.5h7.5Zm11.25,0v-3.75H650v7.5h7.5Zm11.25,0v-3.75h-7.5v7.5h7.5Zm70-395V96.25H672.5v7.5h58.75v782.5H672.5v7.5h66.25ZM92.5,878.75V875H45V115H92.5v-7.5h-55v775h55Zm11.25,0V875h-7.5v7.5h7.5Zm11.25,0V875h-7.5v7.5H115Zm11.25,0V875h-7.5v7.5h7.5Zm11.25,0V875H130v7.5h7.5Zm497.5,0V875h-7.5v7.5H635Zm11.25,0V875h-7.5v7.5h7.5Zm11.25,0V875H650v7.5h7.5Zm11.25,0V875h-7.5v7.5h7.5ZM727.5,495V107.5h-55V115H720V875H672.5v7.5h55ZM92.5,867.5v-3.75H56.25V126.25H92.5v-7.5H48.75v752.5H92.5Zm11.25,0v-3.75h-7.5v7.5h7.5Zm11.25,0v-3.75h-7.5v7.5H115Zm11.25,0v-3.75h-7.5v7.5h7.5Zm520,0v-3.75h-7.5v7.5h7.5Zm11.25,0v-3.75H650v7.5h7.5Zm11.25,0v-3.75h-7.5v7.5h7.5ZM716.25,495V118.75H672.5v7.5h36.25v737.5H672.5v7.5h43.75ZM92.5,856.25V852.5h-25v-715h25V130H60V860H92.5Zm11.25,0V852.5h-7.5V860h7.5Zm11.25,0V852.5h-7.5V860H115Zm542.5,0V852.5H650V860h7.5Zm11.25,0V852.5h-7.5V860h7.5ZM705,495V130H672.5v7.5h25v715h-25V860H705ZM103.75,133.75V130h-7.5v7.5h7.5Zm11.25,0V130h-7.5v7.5H115Zm542.5,0V130H650v7.5h7.5Zm11.25,0V130h-7.5v7.5h7.5Zm-565-11.25v-3.75h-7.5v7.5h7.5Zm11.25,0v-3.75h-7.5v7.5H115Zm11.25,0v-3.75h-7.5v7.5h7.5Zm520,0v-3.75h-7.5v7.5h7.5Zm11.25,0v-3.75H650v7.5h7.5Zm11.25,0v-3.75h-7.5v7.5h7.5Zm-565-11.25V107.5h-7.5V115h7.5Zm11.25,0V107.5h-7.5V115H115Zm11.25,0V107.5h-7.5V115h7.5Zm11.25,0V107.5H130V115h7.5Zm497.5,0V107.5h-7.5V115H635Zm11.25,0V107.5h-7.5V115h7.5Zm11.25,0V107.5H650V115h7.5Zm11.25,0V107.5h-7.5V115h7.5ZM103.75,100V96.25h-7.5v7.5h7.5ZM115,100V96.25h-7.5v7.5H115Zm11.25,0V96.25h-7.5v7.5h7.5Zm11.25,0V96.25H130v7.5h7.5ZM635,100V96.25h-7.5v7.5H635Zm11.25,0V96.25h-7.5v7.5h7.5Zm11.25,0V96.25H650v7.5h7.5Zm11.25,0V96.25h-7.5v7.5h7.5Zm-565-36.875V33.75h557.5V92.5h7.5V26.25H96.25V92.5h7.5ZM115,68.75V45H650V92.5h7.5v-55h-550v55H115Zm11.25,5.625V56.25h512.5V92.5h7.5V48.75H118.75V92.5h7.5ZM137.5,80V67.5h490v25H635V60H130V92.5h7.5Z" transform="translate(-22.5 -22.5)"/></svg>