<svg xmlns="http://www.w3.org/2000/svg" width="190.715" height="176.578" viewBox="0 0 190.715 176.578"><defs><style>.a{fill:#ff0;}.b{fill:#fff;}</style></defs><g transform="translate(-278.577 -277)"><rect class="a" width="12.4" height="50.823" rx="6.2" transform="matrix(-0.259, -0.966, 0.966, -0.259, 286.142, 338.05)"/><path class="b" d="M14.995,0A15,15,0,0,0,0,14.995V124.955A15,15,0,0,0,14.995,139.95H144.948a15,15,0,0,0,14.995-14.995V14.995A15,15,0,0,0,144.948,0Zm0,10H48.108a1.88,1.88,0,0,1,1.874,1.874v6.248a1.88,1.88,0,0,1-1.874,1.874H11.871A1.88,1.88,0,0,1,10,18.119V14.995A5.013,5.013,0,0,1,14.995,10ZM148.072,39.986H11.871A1.88,1.88,0,0,1,10,38.111V26.865a1.88,1.88,0,0,1,1.874-1.874H54.98L64.414,10.84A1.861,1.861,0,0,1,65.976,10h78.972a5.013,5.013,0,0,1,5,5V38.111A1.88,1.88,0,0,1,148.072,39.986Zm-68.1,82.471A37.487,37.487,0,1,1,117.458,84.97,37.516,37.516,0,0,1,79.971,122.456Zm0-64.977a27.49,27.49,0,1,0,27.49,27.49A27.531,27.531,0,0,0,79.971,57.479ZM64.977,89.968a5.013,5.013,0,0,1-5-5A20.011,20.011,0,0,1,79.971,64.977a5,5,0,0,1,0,10,10.026,10.026,0,0,0-10,10A5.013,5.013,0,0,1,64.977,89.968Z" transform="matrix(0.966, -0.259, 0.259, 0.966, 278.577, 318.396)"/></g></svg>