<svg xmlns="http://www.w3.org/2000/svg" width="105.043" height="97.256" viewBox="0 0 105.043 97.256"><defs><style>.a{fill:#fffe00;}.b{fill:#000;}</style></defs><g transform="translate(-278.577 -277)"><rect class="a" width="6.83" height="27.993" rx="3.415" transform="matrix(-0.259, -0.966, 0.966, -0.259, 282.744, 310.626)"/><path class="b" d="M8.259,0A8.261,8.261,0,0,0,0,8.259V68.823a8.261,8.261,0,0,0,8.259,8.259H79.835a8.261,8.261,0,0,0,8.259-8.259V8.259A8.261,8.261,0,0,0,79.835,0Zm0,5.506H26.5a1.035,1.035,0,0,1,1.032,1.032V9.979A1.035,1.035,0,0,1,26.5,11.012H6.538A1.035,1.035,0,0,1,5.506,9.979V8.259A2.761,2.761,0,0,1,8.259,5.506Zm73.3,16.518H6.538a1.035,1.035,0,0,1-1.032-1.032V14.8a1.035,1.035,0,0,1,1.032-1.032H30.282l5.2-7.794a1.025,1.025,0,0,1,.86-.465h43.5a2.761,2.761,0,0,1,2.753,2.753V20.991A1.035,1.035,0,0,1,81.556,22.024ZM44.047,67.447A20.647,20.647,0,1,1,64.694,46.8,20.663,20.663,0,0,1,44.047,67.447Zm0-35.788A15.141,15.141,0,1,0,59.188,46.8,15.163,15.163,0,0,0,44.047,31.659ZM35.788,49.553A2.761,2.761,0,0,1,33.035,46.8,11.022,11.022,0,0,1,44.047,35.788a2.753,2.753,0,1,1,0,5.506A5.522,5.522,0,0,0,38.541,46.8,2.761,2.761,0,0,1,35.788,49.553Z" transform="matrix(0.966, -0.259, 0.259, 0.966, 278.577, 299.8)"/></g></svg>